# xmcd CD database file
#
# Track frame offsets:
#	150
#	28762
#	51987
#	70470
#	92432
#	108625
#	132580
#	155322
#	180700
#	201912
#	223582
#	244365
#	271010
#
# Disc length: 3949 seconds
#
# Revision: 1
# Processed by: cddbd v1.5PL3 Copyright (c) Steve Scherf et al.
# Submitted via: CDex 1.50
#
DISCID=c30f6b0d
DTITLE=V6 - "LUCKY" 20th Century, Coming Century to be continued...
DYEAR=1999
DGENRE=JPop
TTITLE0=over (Europia Mix)
TTITLE1=DANCE!! 〜Make The Party High〜
TTITLE2=やってやろうぜ!! Baby
TTITLE3=EASY SHOW TIME (ORIENTA-RYTHM MIX)
TTITLE4=NO DAMAGE
TTITLE5=Believe Your Smile (VIVA MIX)
TTITLE6=クロール - 20th Century
TTITLE7=自由であるために (BUZZ MIX)
TTITLE8=I'M HAPPY MAN - Coming Century
TTITLE9=Run and Run
TTITLE10=Feelin' Alone
TTITLE11=Coming Century Non-stop Remix [夏のかけら - Yo! You!! - Happy together!]
TTITLE12=20th Century Non-stop Remix [FLY TO THE WORLD! - always - OPEN THE GATE]
EXTD=YEAR: 1999
EXTT0=
EXTT1=
EXTT2=
EXTT3=
EXTT4=
EXTT5=
EXTT6=
EXTT7=
EXTT8=
EXTT9=
EXTT10=
EXTT11=
EXTT12=
PLAYORDER=
